<?xml version="1.0" encoding="utf-8"?>
<!-- Generator: Adobe Illustrator 24.1.3, SVG Export Plug-In . SVG Version: 6.00 Build 0)  -->
<svg version="1.1" id="Layer_1" xmlns="http://www.w3.org/2000/svg" xmlns:xlink="http://www.w3.org/1999/xlink" x="0px" y="0px"
	 viewBox="0 0 1366 837" style="enable-background:new 0 0 1366 837;" xml:space="preserve">
<style type="text/css">
	.st0{clip-path:url(#SVGID_2_);}
	.st1{fill:#C9DBF0;}
	.st2{fill:none;stroke:#294C9B;stroke-width:2;stroke-miterlimit:10;stroke-dasharray:4,4,4;}
	.st3{fill:none;}
	.st4{fill:none;stroke:#294C9B;stroke-width:2;stroke-dasharray:4,4;}
	.st5{fill:none;stroke:#294C9B;stroke-width:2;}
</style>
<g>
	<defs>
		<rect id="SVGID_1_" width="1366" height="837"/>
	</defs>
	<clipPath id="SVGID_2_">
		<use xlink:href="#SVGID_1_"  style="overflow:visible;"/>
	</clipPath>
	<g class="st0">
		<rect class="st1" width="1366" height="837"/>
		<g transform="translate(0 -3020)">
			<g transform="translate(696 3830.529) rotate(-90)">
				<path class="st2" d="M326.7,800.7V100.6c0-7.5-7.5-13.6-16.8-13.6h-373"/>
				<path class="st2" d="M257.2,247h-392.3v703.5c0,89.5,72.2,162,161.2,162h231.1c236.8,0,430.5-194.7,430.5-432.8l0,0
					C687.7,441.7,494,247,257.2,247z"/>
			</g>
			<g transform="translate(853 3205)">
				<circle class="st3" cx="182" cy="92" r="92"/>
				<circle class="st4" cx="182" cy="92" r="91"/>
			</g>
			<g transform="translate(-60)">
				<line class="st4" x1="149" y1="3370.5" x2="149" y2="3020.5"/>
				<g transform="translate(144 3384.5) rotate(-90)">
					<circle class="st3" cx="5.5" cy="5.5" r="5.5"/>
					<circle class="st5" cx="5.5" cy="5.5" r="4.5"/>
				</g>
			</g>
		</g>
	</g>
</g>
</svg>
