<?xml version="1.0" encoding="utf-8"?>
<!-- Generator: Adobe Illustrator 24.3.0, SVG Export Plug-In . SVG Version: 6.00 Build 0)  -->
<svg version="1.1" id="Layer_1" xmlns="http://www.w3.org/2000/svg" xmlns:xlink="http://www.w3.org/1999/xlink" x="0px" y="0px"
	 viewBox="0 0 100 100" style="enable-background:new 0 0 100 100;" xml:space="preserve">
<style type="text/css">
	.st0{fill:#FFFFFF;}
</style>
<path class="st0" d="M79,0H21C9.5,0,0.3,9.3,0.3,20.7v58c0,11.4,9.3,20.7,20.7,20.7h58c11.5,0,20.7-9.3,20.7-20.7v-58
	C99.8,9.3,90.5,0,79,0z M78.9,27.6L50,51.7l-28.9-24H78.9z M82.3,32.1v37.5v0c0.1,1.4-0.9,2.7-2.4,2.8c-0.1,0-0.3,0-0.4,0h-59
	c-1.4,0.2-2.6-0.8-2.8-2.2c0-0.1,0-0.3,0-0.4V31.8c0-0.1,0-0.2,0-0.5l6.5,5.3l24,20c0.9,1,2.5,1,3.5,0.1c0,0,0.1-0.1,0.1-0.1
	L81.4,32l0.9-0.7C82.3,31.6,82.3,31.8,82.3,32.1z"/>
</svg>
