<?xml version="1.0" encoding="utf-8"?>
<!-- Generator: Adobe Illustrator 24.1.3, SVG Export Plug-In . SVG Version: 6.00 Build 0)  -->
<svg version="1.1" id="Layer_1" xmlns="http://www.w3.org/2000/svg" xmlns:xlink="http://www.w3.org/1999/xlink" x="0px" y="0px"
	 viewBox="0 0 115 36" style="enable-background:new 0 0 115 36;" xml:space="preserve">
<style type="text/css">
	.st0{fill:#1F4BA0;}
</style>
<g>
	<path class="st0" d="M1.9,14.7l-1.9,0L0,3c0-1.1,0.9-2,2-2l3.3,0l0,10.3C5.3,13.2,3.8,14.7,1.9,14.7z"/>
	<path class="st0" d="M5.3,35.2l-3.3,0c-1.1,0-2-0.9-2-2l0-16.3l1.9,0c1.9,0,3.4,1.5,3.4,3.4L5.3,35.2z"/>
	<path class="st0" d="M13.7,14.7l-2.8,0c-1.9,0-3.4-1.5-3.4-3.4L7.5,1l6.2,0c4.2,0,7.7,2.8,7.7,7.1l0,0.3
		C21.4,12.7,17.9,14.7,13.7,14.7z"/>
	<path class="st0" d="M15.8,35.2l-8.3,0l0-14.8c0-1.9,1.5-3.4,3.4-3.4l4.9,0c5,0,9.1,4.1,9.1,9.1v0C25,31.1,20.8,35.2,15.8,35.2z"/>
	<g>
		<path class="st0" d="M32.3,8.1h3c2.2,0,3.3,0.8,3.3,2.3c0,0.9-0.4,1.5-1.6,2c1.4,0.3,1.8,1.2,1.8,2.1c0,1.6-1.1,2.4-3.4,2.4h-3.1
			V8.1z M35.5,11.8c0.8,0,1.7-0.3,1.7-1.3c0-0.9-0.7-1.3-1.8-1.3h-1.7v2.6H35.5z M35.4,15.7c1.2,0,1.9-0.5,1.9-1.3
			c0-0.9-0.8-1.4-1.8-1.4h-1.8v2.7H35.4z"/>
		<path class="st0" d="M40.2,15.2V8h1.4v7c0,0.5,0.2,0.9,0.7,0.9l0.3,0v0.9C42.4,16.9,42.2,17,42,17C40.4,17,40.2,16.1,40.2,15.2z"
			/>
		<path class="st0" d="M43.8,14.9v-4.3h1.5v4.1c0,0.7,0.4,1.2,1.3,1.2c0.8,0,1.3-0.4,1.3-1.2v-4.1h1.5v6.3h-1.1l-0.2-1.2
			c-0.2,1-1.1,1.4-1.9,1.4C45,17,43.8,16.3,43.8,14.9z"/>
		<path class="st0" d="M53.7,15.9c0.7,0,1.3-0.3,1.4-1h1.4c-0.2,1.3-1.5,2-2.7,2c-1.8,0-3.1-1.2-3.1-3.2c0-1.9,1.1-3.3,3-3.3
			c1.9,0,2.9,1.3,2.9,3.2v0.5h-4.4C52.1,15.2,52.7,15.9,53.7,15.9z M55.1,13.2c0-0.9-0.5-1.6-1.5-1.6c-1,0-1.5,0.8-1.5,1.6H55.1z"/>
		<path class="st0" d="M68.4,8.1v8.8h-1.3l-4.4-6.5v6.5h-1.5V8.1h1.4l4.3,6.3V8.1H68.4z"/>
		<path class="st0" d="M69.7,13.8c0-2,1.1-3.3,3-3.3c1.8,0,3,1.2,3,3.3c0,1.9-1.1,3.2-3,3.2C70.9,17,69.7,15.8,69.7,13.8z
			 M74.2,13.7c0-1.2-0.4-2.1-1.5-2.1c-1,0-1.5,0.9-1.5,2.1c0,1.1,0.4,2.2,1.5,2.2C73.7,15.9,74.2,15,74.2,13.7z"/>
		<path class="st0" d="M78.7,11.6l0,3.6c0,0.6,0.2,0.6,0.7,0.6h0.8v0.9c-0.2,0.1-0.5,0.1-1,0.1c-1.5,0-1.9-0.6-1.9-1.6v-3.7h-1v-1
			h1.1l0.4-1.9h1.1v1.9h1.4v1.1H78.7z"/>
		<path class="st0" d="M84.1,15.9c0.7,0,1.3-0.3,1.4-1h1.4c-0.2,1.3-1.5,2-2.7,2c-1.8,0-3.1-1.2-3.1-3.2c0-1.9,1.1-3.3,3-3.3
			c1.9,0,2.9,1.3,2.9,3.2v0.5h-4.4C82.6,15.2,83.1,15.9,84.1,15.9z M85.5,13.2c0-0.9-0.5-1.6-1.5-1.6c-1,0-1.5,0.8-1.5,1.6H85.5z"/>
	</g>
	<g>
		<path class="st0" d="M32.2,24.3h6.9v1.3h-2.6v7.5H35v-7.5h-2.7V24.3z"/>
		<path class="st0" d="M40.2,24.2h1.5v3.5c0.3-0.5,0.9-1,1.9-1c1.2,0,2.2,0.7,2.2,1.9v4.4h-1.5v-4.2c0-0.7-0.5-1-1.2-1
			c-0.7,0-1.4,0.4-1.4,1.1v4.1h-1.5V24.2z"/>
		<path class="st0" d="M49.9,32.1c0.7,0,1.3-0.3,1.4-1h1.4c-0.2,1.3-1.5,2-2.7,2c-1.8,0-3.1-1.2-3.1-3.2c0-1.9,1.1-3.3,3-3.3
			c1.9,0,2.9,1.3,2.9,3.2v0.5h-4.4C48.4,31.3,48.9,32.1,49.9,32.1z M51.3,29.4c0-0.9-0.5-1.6-1.5-1.6c-1,0-1.5,0.8-1.5,1.6H51.3z"/>
		<path class="st0" d="M54,26.8h1.4v1.4c0.3-0.9,1-1.5,1.9-1.5c0.1,0,0.3,0,0.4,0.1v1.4c-0.1,0-0.3-0.1-0.4-0.1
			c-1.2-0.1-1.9,0.4-1.9,1.3v3.7H54V26.8z"/>
		<path class="st0" d="M58.3,31.3c0-1.4,0.8-2.1,3-2.1l0.9,0v-0.4c0-0.7-0.4-1.1-1.2-1.1c-0.6,0-1.2,0.3-1.3,0.9h-1.3
			c0.1-1.3,1.1-1.9,2.7-1.9c1.8,0,2.6,0.7,2.6,2v4.4h-1.2l-0.1-1.1c-0.5,0.9-1.2,1.3-2,1.3C59.1,33.2,58.3,32.5,58.3,31.3z M62.3,31
			v-1l-0.8,0c-1.1,0-1.9,0.3-1.9,1.2c0,0.6,0.5,1,1.2,1C61.5,32.2,62.3,31.6,62.3,31z"/>
		<path class="st0" d="M65.3,26.8h1.5l0,1c0.3-0.6,1-1.1,2-1.1c1.5,0,2.5,1,2.5,3.2c0,2.2-1.1,3.3-2.6,3.3c-1,0-1.6-0.6-1.9-1.2v3
			h-1.5V26.8z M69.9,29.9c0-1.3-0.6-2.1-1.5-2.1c-1,0-1.6,0.9-1.6,2.1c0,1.2,0.5,2.2,1.6,2.2C69.2,32.1,69.9,31.4,69.9,29.9z"/>
		<path class="st0" d="M75.2,32.1c0.7,0,1.3-0.3,1.4-1H78c-0.2,1.3-1.5,2-2.7,2c-1.8,0-3.1-1.2-3.1-3.2c0-1.9,1.1-3.3,3-3.3
			c1.9,0,2.9,1.3,2.9,3.2v0.5h-4.4C73.7,31.3,74.2,32.1,75.2,32.1z M76.6,29.4c0-0.9-0.5-1.6-1.5-1.6c-1,0-1.5,0.8-1.5,1.6H76.6z"/>
		<path class="st0" d="M79.3,31.1v-4.3h1.5v4.1c0,0.7,0.4,1.2,1.3,1.2c0.8,0,1.3-0.4,1.3-1.2v-4.1h1.5v6.3h-1.1l-0.2-1.2
			c-0.2,1-1.1,1.4-1.9,1.4C80.5,33.2,79.3,32.5,79.3,31.1z"/>
		<path class="st0" d="M88.6,27.8l0,3.6c0,0.6,0.2,0.6,0.7,0.6H90V33c-0.2,0.1-0.5,0.1-1,0.1c-1.5,0-1.9-0.6-1.9-1.6v-3.7h-1v-1h1.1
			l0.4-1.9h1.1v1.9H90v1.1H88.6z"/>
		<path class="st0" d="M92.8,25.7h-1.5v-1.4h1.5V25.7z M92.8,33.1h-1.4v-6.3h1.4V33.1z"/>
		<path class="st0" d="M99.6,28.9h-1.3c-0.1-0.6-0.5-1.1-1.3-1.1c-0.9,0-1.6,0.7-1.6,2.1c0,1.3,0.6,2.2,1.6,2.2
			c0.8,0,1.2-0.6,1.3-1.1h1.2c-0.1,1.3-1.1,2.2-2.6,2.2c-1.7,0-3-1.2-3-3.2c0-2,1.1-3.3,3-3.3C98.5,26.7,99.5,27.6,99.6,28.9z"/>
		<path class="st0" d="M100.4,31.2h1.3c0.2,0.7,0.8,1,1.4,1c0.8,0,1.3-0.3,1.3-0.8c0-0.4-0.2-0.6-0.8-0.7l-1.2-0.3
			c-1.1-0.2-1.8-0.7-1.8-1.7c0-1.1,0.9-1.9,2.5-1.9c1.5,0,2.4,0.7,2.5,1.9h-1.3c-0.1-0.5-0.5-0.9-1.2-0.9c-0.7,0-1.2,0.3-1.2,0.8
			c0,0.4,0.3,0.6,1,0.7l1.1,0.3c1.3,0.3,1.6,1.2,1.6,1.8c0,1.2-1,1.9-2.5,1.9C101.8,33.2,100.6,32.6,100.4,31.2z"/>
	</g>
</g>
<g>
	<path class="st0" d="M108.4,24.3h2.7v0.5h-1v3h-0.5v-3h-1.1V24.3z M111.6,24.3h0.7l1,2.8l1-2.8h0.7v3.5h-0.5V25l-1,2.8h-0.4l-1-2.7
		v2.7h-0.5V24.3z"/>
</g>
</svg>
