<?xml version="1.0" encoding="utf-8"?>
<!-- Generator: Adobe Illustrator 24.3.0, SVG Export Plug-In . SVG Version: 6.00 Build 0)  -->
<svg version="1.1" id="Layer_1" xmlns="http://www.w3.org/2000/svg" xmlns:xlink="http://www.w3.org/1999/xlink" x="0px" y="0px"
	 viewBox="0 0 990.4 294.4" style="enable-background:new 0 0 990.4 294.4;" xml:space="preserve">
<style type="text/css">
	.st0{fill:#FFFFFF;}
</style>
<g>
	<path class="st0" d="M17,117.9H0.7V17.1c0-9.3,7.6-16.9,16.9-16.9h28.8v88.3C46.4,104.8,33.2,117.9,17,117.9z"/>
	<path class="st0" d="M46.4,294.1H17.6c-9.3,0-16.9-7.6-16.9-16.9l0-140H17c16.2,0,29.4,13.1,29.4,29.4V294.1z"/>
	<path class="st0" d="M118.4,117.9H94.7c-16.2,0-29.4-13.1-29.4-29.4V0.2h53.1c36.6,0,66.5,24.3,66.5,60.8v2.8
		C184.9,100.3,155,117.9,118.4,117.9z"/>
	<path class="st0" d="M136.9,294.1H65.4l-0.1-127.6c0-16.2,13.1-29.4,29.4-29.4h42.1c43.2,0,78.5,35.3,78.5,78.4l0,0
		C215.4,258.7,180.1,294.1,136.9,294.1z"/>
	<g>
		<path class="st0" d="M278.4,61h26c19.2,0,28.7,7,28.7,19.8c0,7.8-3.5,13.3-13.5,17.2c12.3,3,15.4,10.5,15.4,18.3
			c0,13.8-9.4,20.4-29.5,20.4h-27.1V61z M306.6,93.3c7,0,14.3-2.9,14.3-10.8c0-7.6-6.4-11.3-15.4-11.3h-14.3v22.2L306.6,93.3
			L306.6,93.3z M305.7,126.7c10.7,0,16.4-4,16.4-11.3c0-8-6.7-11.7-15.5-11.7h-15.5v23H305.7z"/>
		<path class="st0" d="M346.4,122.2v-62h12.5v60.6c0,4.7,1.8,7.3,6.1,7.7l2.7,0.1v8c-1.9,0.6-4,1-5.7,1
			C347.9,137.6,346.4,129.9,346.4,122.2z"/>
		<path class="st0" d="M377.6,119.8V82.6h12.8v35.7c0,5.9,3.7,10.1,11.3,10.1c6.9,0,11.3-3.7,11.3-10.5V82.6h12.7v54.2h-9.8
			l-1.4-10.6c-2,8.9-9.2,11.7-16.1,11.6C387.8,137.8,377.6,131.6,377.6,119.8z"/>
		<path class="st0" d="M462.6,128.4c6,0,10.8-2.6,12.3-8.2h11.6c-1.9,11.3-12.7,17.6-23.6,17.6c-15.7,0-26.4-10.5-26.4-27.6
			c0-16.6,9.4-28.7,25.6-28.7c16,0,24.6,10.8,24.6,27.2v3.9h-37.5C449.2,121.9,453.8,128.4,462.6,128.4z M474.6,104.7
			c0-7.9-4.1-14-12.6-14c-8.4,0-12.9,7-12.9,14H474.6z"/>
		<path class="st0" d="M589.4,61v75.8h-11.5l-38.1-55.6v55.6h-12.7V61h12.5l37.1,54.1V61H589.4z"/>
		<path class="st0" d="M600.6,110c0-17,9.6-28.4,25.7-28.4c15.5,0,25.4,10.6,25.4,28.4c0,16.5-9.1,27.9-25.5,27.9
			C610.7,137.9,600.6,127.5,600.6,110z M639.2,109.6c0-10-3.5-18.5-12.9-18.5c-8.9,0-13.1,7.5-13.1,18.5c0,9.8,3.5,18.6,13.1,18.6
			C635,128.2,639.2,120.4,639.2,109.6z"/>
		<path class="st0" d="M678.4,91.6l0.1,31.1c0,4.8,1.5,5.3,5.6,5.3h6.7v8.1c-1.5,0.6-4.2,1.1-8.9,1.1c-12.9,0-16.2-5.3-16.2-14V91.6
			h-8.8v-9h9.2l3.2-16.1h9.2v16h12.1v9.1H678.4z"/>
		<path class="st0" d="M724.5,128.4c6,0,10.8-2.6,12.3-8.2h11.6c-1.9,11.3-12.7,17.6-23.6,17.6c-15.7,0-26.4-10.5-26.4-27.6
			c0-16.6,9.4-28.7,25.6-28.7c16,0,24.6,10.8,24.6,27.2v3.9h-37.5C711.1,121.9,715.8,128.4,724.5,128.4z M736.6,104.7
			c0-7.9-4.1-14-12.6-14c-8.4,0-12.9,7-12.9,14H736.6z"/>
	</g>
	<g>
		<path class="st0" d="M278.1,200.3h59.1v11.5h-22.7v64.3h-12.8v-64.3h-23.6V200.3z"/>
		<path class="st0" d="M346.7,199.3h12.6v30.5c2.7-4,7.5-8.3,16.2-8.3c10.4,0,18.9,6.2,18.9,16.7v38h-12.8v-35.8
			c0-5.6-4.5-8.8-10.4-8.8c-6.1,0-11.7,3.1-11.7,9.3v35.3h-12.7v-76.9H346.7z"/>
		<path class="st0" d="M430.5,267.7c6,0,10.8-2.6,12.3-8.2h11.6c-1.9,11.3-12.7,17.6-23.6,17.6c-15.7,0-26.4-10.5-26.4-27.6
			c0-16.6,9.4-28.7,25.6-28.7c16,0,24.6,10.8,24.6,27.2v3.9h-37.5C417.1,261.2,421.8,267.7,430.5,267.7z M442.6,244
			c0-7.9-4.1-14-12.6-14c-8.4,0-12.9,7-12.9,14H442.6z"/>
		<path class="st0" d="M465.6,221.9h12.2v11.7c2.6-8.1,8.9-12.8,16.7-12.8c1.3,0,2.5,0.2,3.1,0.5v12.2c-0.8-0.3-2.2-0.5-3.1-0.5
			c-10.5-0.8-16.2,3.5-16.2,11.5V276h-12.7V221.9z"/>
		<path class="st0" d="M502.7,261c0-11.9,7.1-18,26-18.3l8.1-0.2v-3.7c0-5.7-3.4-9.2-10.4-9.1c-5.3,0.1-10.1,2.3-11.5,7.9H504
			c0.6-11.2,9.6-16.8,23-16.8c15.5,0,22.1,6.3,22.1,17.2v38h-10.7l-1-9.7c-3.9,8.1-10,10.8-17.6,10.8
			C509.2,277.2,502.7,271.3,502.7,261z M536.8,258.1v-8.5l-6.7,0.1c-9.9,0.1-16.4,2.8-16.4,10c0,5.6,4.3,8.8,10.1,8.8
			C530.1,268.5,536.7,263.4,536.8,258.1z"/>
		<path class="st0" d="M562.7,221.9h12.7l0.1,8.5c2.9-4.8,8.7-9.6,17.2-9.6c12.5,0,21.4,8.8,21.4,27.6c0,19.2-9.1,28.7-22.5,28.7
			c-8.2,0-13.5-5-16.1-10V293h-12.8L562.7,221.9L562.7,221.9z M602.1,248.6c0-11.3-5-18.3-13.3-18.3c-9,0-13.4,7.7-13.4,18.3
			c0,10.3,4.5,19,13.4,19C596.4,267.6,602.1,261.7,602.1,248.6z"/>
		<path class="st0" d="M648.3,267.7c6,0,10.8-2.6,12.3-8.2h11.6c-1.9,11.3-12.7,17.6-23.6,17.6c-15.7,0-26.4-10.5-26.4-27.6
			c0-16.6,9.4-28.7,25.6-28.7c16,0,24.6,10.8,24.6,27.2v3.9h-37.5C634.9,261.2,639.5,267.7,648.3,267.7z M660.3,244
			c0-7.9-4.1-14-12.6-14c-8.4,0-12.9,7-12.9,14H660.3z"/>
		<path class="st0" d="M683.5,259.1v-37.2h12.8v35.7c0,5.9,3.7,10.1,11.3,10.1c6.9,0,11.3-3.7,11.3-10.5v-35.3h12.7v54.2h-9.8
			l-1.4-10.6c-2,8.9-9.2,11.7-16.1,11.6C693.6,277.1,683.5,270.9,683.5,259.1z"/>
		<path class="st0" d="M763,230.9l0.1,31.1c0,4.8,1.5,5.3,5.6,5.3h6.7v8.1c-1.5,0.6-4.2,1.1-8.9,1.1c-12.9,0-16.2-5.3-16.2-14v-31.6
			h-8.8v-9h9.2l3.2-16.1h9.2v16h12.1v9.1H763z"/>
		<path class="st0" d="M799.7,212.4h-12.6v-12.1h12.6V212.4z M799.5,276.1h-12.2v-54.2h12.2V276.1z"/>
		<path class="st0" d="M858.1,240.5h-10.8c-0.8-4.9-4.6-9.7-11.4-9.7c-8.1,0-13.7,6-13.7,18.3c0,11.5,5,18.8,13.9,18.8
			c6.8,0,10.5-5.2,11.3-9.7H858c-1,11.1-9.7,19-22.2,19c-14.9,0-25.6-10.2-25.6-27.9c0-16.8,9.7-28.4,25.6-28.4
			C848.4,220.9,857,229.1,858.1,240.5z"/>
		<path class="st0" d="M864.8,259.6H876c1.4,6,6.8,8.5,12.3,8.5c6.5,0,10.8-2.2,10.8-6.9c0-3.4-2.1-5.3-7-6.4l-10.3-2.4
			c-9.2-2-15.2-6.4-15.3-14.9c-0.1-9.6,7.4-16.7,21.8-16.7c12.6,0,20.9,5.8,21.1,16.2h-10.8c-0.8-4.7-4.6-7.4-10.4-7.4
			c-6,0-10.3,2.3-10.3,7c0,3.3,2.9,5,8.8,6.3l9.7,2.4c11.1,2.8,13.7,10.1,13.7,15.2c0,10.5-8.5,16.6-21.9,16.6
			C877,277.2,866.6,271.9,864.8,259.6z"/>
	</g>
</g>
<g>
	<path class="st0" d="M934,200.4h22.9v4h-9v25.8h-4.4v-25.8H934V200.4z M961.1,200.4h6.2l8.4,23.7l8.5-23.7h6.2v29.8h-4.5v-23.7
		l-8.2,23.7h-3.9l-8.2-23.5v23.5h-4.5V200.4z"/>
</g>
</svg>
