<?xml version="1.0" encoding="utf-8"?>
<!-- Generator: Adobe Illustrator 25.0.1, SVG Export Plug-In . SVG Version: 6.00 Build 0)  -->
<svg version="1.1" id="Layer_1" xmlns="http://www.w3.org/2000/svg" xmlns:xlink="http://www.w3.org/1999/xlink" x="0px" y="0px"
	 viewBox="0 0 224 39" style="enable-background:new 0 0 224 39;" xml:space="preserve">
<style type="text/css">
	.st0{enable-background:new    ;}
	.st1{fill:#5896E0;}
	.st2{fill:#67B9CD;}
	.st3{fill:#9EDDB6;}
	.st4{fill:#F2E197;}
	.st5{fill:#F2C8C0;}
</style>
<g class="st0">
	<path class="st1" d="M76,32.5c-1.3,1.4-2.7,2.5-4.5,3.2c-1.7,0.7-3.5,1.1-5.5,1.1c-1.8,0-3.4-0.3-5-1c-1.6-0.6-2.9-1.5-4.1-2.7
		c-1.2-1.1-2.1-2.5-2.7-4c-0.7-1.6-1-3.3-1-5.1c0-1.8,0.3-3.5,1-5c0.7-1.6,1.6-2.9,2.7-4c1.1-1.1,2.5-2,4.1-2.7c1.6-0.7,3.2-1,5-1
		c1.8,0,3.6,0.3,5.2,1c1.7,0.7,3.1,1.7,4.4,3l-4.1,4.1c-0.6-0.8-1.4-1.5-2.2-2c-0.9-0.5-2-0.8-3.2-0.8c-0.9,0-1.8,0.2-2.6,0.6
		c-0.8,0.4-1.6,0.9-2.2,1.6c-0.6,0.7-1.1,1.4-1.5,2.3c-0.4,0.9-0.5,1.9-0.5,2.9c0,1,0.2,2,0.5,2.9c0.4,0.9,0.9,1.7,1.5,2.3
		c0.6,0.7,1.3,1.2,2.2,1.6c0.8,0.4,1.7,0.6,2.6,0.6c1.2,0,2.3-0.3,3.3-0.9c1-0.6,1.8-1.3,2.4-2.2L76,32.5z"/>
	<path class="st1" d="M104.1,24c0,0.4,0,0.8-0.1,1.2c0,0.4-0.1,0.9-0.1,1.3H84.5c0.5,1.4,1.3,2.6,2.5,3.6c1.2,1,2.6,1.5,4.4,1.5
		c1.1,0,2.2-0.2,3.3-0.6c1.1-0.4,2-0.9,2.7-1.5l3.8,3.8c-1.7,1.3-3.3,2.1-4.9,2.7c-1.6,0.5-3.3,0.8-5.1,0.8c-1.8,0-3.5-0.3-5.1-1
		c-1.6-0.7-3-1.6-4.1-2.7c-1.2-1.1-2.1-2.5-2.8-4.1s-1-3.2-1-5c0-1.8,0.3-3.4,1-5c0.7-1.6,1.6-2.9,2.8-4.1c1.2-1.1,2.5-2.1,4.1-2.7
		c1.6-0.7,3.2-1,5-1c1.7,0,3.3,0.3,4.9,0.9c1.6,0.6,3,1.5,4.2,2.6c1.2,1.1,2.2,2.5,2.9,4C103.8,20.4,104.1,22.1,104.1,24z
		 M97.8,21.6c-0.5-1.5-1.3-2.8-2.5-3.7c-1.2-0.9-2.6-1.4-4.1-1.4c-1.5,0-2.9,0.5-4.1,1.4c-1.2,0.9-2,2.2-2.5,3.7H97.8z"/>
	<path class="st1" d="M125.3,14.4l-3.2,5.1c-0.6-0.6-1.2-1.2-2-1.7c-0.7-0.5-1.4-0.7-2.2-0.7c-0.4,0-0.8,0.1-1.3,0.3
		c-0.5,0.2-0.9,0.5-1.3,0.9c-0.4,0.4-0.7,1-1,1.7c-0.3,0.7-0.4,1.5-0.4,2.5v13.7h-6V11.9h6v2.6c0.7-1,1.5-1.8,2.4-2.4
		c0.9-0.6,1.9-0.8,3-0.8c1.1,0,2.1,0.3,3.1,0.9C123.5,12.7,124.4,13.4,125.3,14.4z"/>
	<path class="st1" d="M152.5,24c0,0.4,0,0.8-0.1,1.2s-0.1,0.9-0.1,1.3h-19.4c0.5,1.4,1.3,2.6,2.5,3.6c1.2,1,2.6,1.5,4.4,1.5
		c1.1,0,2.2-0.2,3.3-0.6c1.1-0.4,2-0.9,2.7-1.5l3.8,3.8c-1.7,1.3-3.3,2.1-4.9,2.7c-1.6,0.5-3.3,0.8-5.1,0.8c-1.8,0-3.5-0.3-5.1-1
		c-1.6-0.7-3-1.6-4.1-2.7c-1.2-1.1-2.1-2.5-2.8-4.1s-1-3.2-1-5c0-1.8,0.3-3.4,1-5c0.7-1.6,1.6-2.9,2.8-4.1c1.2-1.1,2.5-2.1,4.1-2.7
		c1.6-0.7,3.2-1,5-1c1.7,0,3.3,0.3,4.9,0.9c1.6,0.6,3,1.5,4.2,2.6c1.2,1.1,2.2,2.5,2.9,4S152.5,22.1,152.5,24z M146.2,21.6
		c-0.5-1.5-1.3-2.8-2.5-3.7c-1.2-0.9-2.6-1.4-4.1-1.4c-1.5,0-2.9,0.5-4.1,1.4c-1.2,0.9-2,2.2-2.5,3.7H146.2z"/>
	<path class="st1" d="M178.4,36.2h-6V21.7c0-0.9-0.1-1.6-0.4-2.3c-0.3-0.7-0.6-1.2-1.1-1.6c-0.5-0.4-1-0.8-1.5-1s-1.2-0.3-1.8-0.3
		c-0.9,0-1.8,0.2-2.7,0.5c-0.9,0.3-1.7,0.8-2.4,1.5v17.7h-6V11.9h6l0,1.8c0.4-0.4,0.8-0.7,1.3-1c0.5-0.3,1.1-0.6,1.7-0.8
		s1.2-0.4,1.8-0.5c0.6-0.1,1.2-0.2,1.7-0.2c1.2,0,2.4,0.2,3.5,0.6c1.1,0.4,2.2,1,3,1.8c0.9,0.8,1.6,1.9,2.1,3.1
		c0.5,1.3,0.8,2.8,0.8,4.6V36.2z"/>
	<path class="st1" d="M202.8,36.2h-6.1v-1.3c-1.1,0.7-2.2,1.2-3.4,1.5s-2.4,0.4-3.7,0.4c-1.2,0-2.2-0.2-3.2-0.5
		c-1-0.4-1.8-0.9-2.5-1.5c-0.7-0.7-1.2-1.4-1.6-2.3c-0.4-0.9-0.6-1.9-0.6-3c0-1.4,0.3-2.6,0.9-3.6c0.6-1,1.4-1.9,2.5-2.6
		c1-0.7,2.2-1.2,3.6-1.5c1.4-0.3,2.9-0.5,4.5-0.5h3.5c0-1.4-0.5-2.6-1.4-3.4c-0.9-0.8-2.2-1.3-4-1.3c-0.8,0-1.7,0.2-2.6,0.5
		c-0.9,0.3-1.8,0.9-2.7,1.7l-3.6-3.6c1.3-1.3,2.8-2.2,4.5-2.9c1.7-0.7,3.4-1,5.2-1c1.7,0,3.2,0.3,4.5,0.8c1.3,0.5,2.4,1.2,3.2,2.1
		c1.1,1.1,1.8,2.3,2.2,3.6c0.4,1.3,0.7,3,0.7,5V36.2z M196.7,30.1v-4.5h-2.8c-0.8,0-1.6,0.1-2.4,0.2c-0.7,0.1-1.4,0.3-1.9,0.6
		c-0.5,0.3-1,0.6-1.3,1s-0.5,0.9-0.5,1.5c0,0.8,0.3,1.5,1,2.1c0.7,0.5,1.5,0.8,2.5,0.8c0.9,0,1.8-0.1,2.7-0.4
		C194.9,31,195.8,30.6,196.7,30.1z"/>
</g>
<g class="st0">
	<path class="st1" d="M212.9,4.2h-2.7v8.1h-2V4.2h-2.7V2.6h7.3V4.2z M224.1,12.4h-1.9V5.8l-3.1,5.2l-3-5.3v6.6h-1.9V2.6h2.2l2.6,4.8
		l2.8-4.8h2.1V12.4z"/>
</g>
<g id="Group_1690" transform="translate(43 -0.4)">
	<g id="Group_1691" transform="translate(-283.708 -240.024)">
		<ellipse id="Ellipse_246" class="st1" cx="252.9" cy="269.8" rx="9" ry="5.5"/>
		<ellipse id="Ellipse_247" class="st2" cx="266.1" cy="261.5" rx="7.6" ry="4.4"/>
		<ellipse id="Ellipse_248" class="st3" cx="257.8" cy="253.9" rx="6.3" ry="3.2"/>
		<ellipse id="Ellipse_249" class="st4" cx="266.8" cy="249.5" rx="4.9" ry="2.1"/>
		<ellipse id="Ellipse_250" class="st5" cx="272.2" cy="245.8" rx="3.5" ry="1.2"/>
	</g>
</g>
</svg>
